<?xml version="1.0" encoding="utf-8"?>
<!-- Generator: Adobe Illustrator 20.1.0, SVG Export Plug-In . SVG Version: 6.00 Build 0)  -->
<svg version="1.1" id="Layer_1" xmlns="http://www.w3.org/2000/svg" xmlns:xlink="http://www.w3.org/1999/xlink" x="0px" y="0px"
	 viewBox="0 0 200 89" style="enable-background:new 0 0 200 89;" xml:space="preserve">
<style type="text/css">
	.st0{fill:#232222;}
	.st1{fill:#00A8E1;}
</style>
<g>
	<path class="st0" d="M39,26.5h5.9L56,76.1h-7.1l-2.1-10.7h-9.7L35,76.1h-7.1L39,26.5z M41.9,40.8h-0.1l-3.5,18h7.1L41.9,40.8z"/>
	<path class="st0" d="M82,65c0,1.5-0.3,3-0.9,4.4c-0.6,1.4-1.4,2.6-2.4,3.7c-1,1-2.2,1.9-3.6,2.5c-1.4,0.6-2.8,0.9-4.4,0.9
		c-1.3,0-2.7-0.2-4.1-0.6c-1.4-0.4-2.6-1-3.8-1.9s-2-2.1-2.8-3.6C59.4,69,59,67.1,59,64.8V37.5c0-1.6,0.3-3.1,0.8-4.5
		c0.6-1.4,1.3-2.6,2.4-3.6c1-1,2.2-1.8,3.7-2.4c1.4-0.6,3-0.9,4.7-0.9c1.6,0,3.1,0.3,4.5,0.9c1.4,0.6,2.6,1.4,3.6,2.4
		c1,1,1.8,2.3,2.4,3.8c0.6,1.5,0.9,3.1,0.9,4.8v2.8h-7.1v-2.4c0-1.4-0.4-2.6-1.2-3.6c-0.8-1-1.9-1.5-3.2-1.5c-1.8,0-2.9,0.5-3.5,1.6
		c-0.6,1.1-0.9,2.5-0.9,4.1v25.4c0,1.4,0.3,2.6,0.9,3.6c0.6,1,1.8,1.5,3.4,1.5c0.5,0,1-0.1,1.5-0.2c0.5-0.2,1-0.4,1.5-0.8
		c0.4-0.4,0.8-0.9,1.1-1.5c0.3-0.7,0.4-1.5,0.4-2.4V62H82V65z"/>
	<path class="st0" d="M87.8,26.5h7.1v22.6h0.1l10.4-22.6h7.1l-9.7,19.9l11.5,29.8h-7.5l-8.1-22l-3.8,7.2v14.8h-7.1V26.5z"/>
	<path class="st0" d="M140.5,40.8h-7.1v-1.6c0-1.6-0.4-3-1.1-4.2c-0.8-1.2-2.1-1.8-3.9-1.8c-1,0-1.8,0.2-2.4,0.6
		c-0.6,0.4-1.1,0.8-1.5,1.4c-0.3,0.6-0.6,1.3-0.7,2c-0.1,0.8-0.2,1.6-0.2,2.4c0,1,0,1.8,0.1,2.5c0.1,0.7,0.2,1.3,0.5,1.7
		c0.3,0.5,0.7,0.9,1.2,1.3c0.5,0.4,1.3,0.7,2.2,1.1l5.4,2.2c1.6,0.6,2.9,1.3,3.8,2.1c1,0.8,1.7,1.8,2.3,2.9c0.5,1.1,0.9,2.3,1.1,3.8
		c0.2,1.4,0.3,3,0.3,4.8c0,2.1-0.2,4-0.6,5.8c-0.4,1.8-1.1,3.3-2.1,4.6c-1,1.3-2.2,2.3-3.8,3c-1.6,0.7-3.5,1.1-5.8,1.1
		c-1.7,0-3.3-0.3-4.8-0.9c-1.5-0.6-2.8-1.4-3.8-2.5c-1.1-1-1.9-2.3-2.5-3.7c-0.6-1.4-0.9-3-0.9-4.7v-2.6h7.1v2.2
		c0,1.3,0.4,2.5,1.2,3.5c0.8,1,2.1,1.6,3.9,1.6c1.2,0,2.1-0.2,2.8-0.5c0.7-0.3,1.2-0.8,1.5-1.5c0.3-0.6,0.6-1.4,0.7-2.3
		c0.1-0.9,0.1-2,0.1-3.1c0-1.3,0-2.4-0.1-3.2c-0.1-0.8-0.3-1.5-0.6-2c-0.3-0.5-0.7-0.9-1.3-1.3c-0.5-0.3-1.2-0.7-2.1-1l-5.1-2.1
		c-3.1-1.3-5.1-2.9-6.2-5c-1-2.1-1.6-4.7-1.6-7.8c0-1.9,0.3-3.6,0.8-5.3c0.5-1.7,1.3-3.1,2.3-4.3c1-1.2,2.3-2.2,3.8-2.9
		c1.5-0.7,3.3-1.1,5.4-1.1c1.8,0,3.4,0.3,4.8,1c1.5,0.7,2.7,1.5,3.8,2.6c1,1.1,1.8,2.3,2.4,3.6c0.6,1.3,0.8,2.7,0.8,4.1V40.8z"/>
	<path class="st0" d="M145.4,38.2c0-2,0.3-3.8,1-5.3c0.7-1.5,1.6-2.8,2.8-3.8c1.1-1,2.4-1.8,3.8-2.3c1.4-0.5,2.8-0.8,4.3-0.8
		c1.4,0,2.9,0.3,4.3,0.8c1.4,0.5,2.7,1.3,3.8,2.3c1.1,1,2.1,2.3,2.8,3.8c0.7,1.5,1,3.3,1,5.3v26.2c0,2-0.3,3.8-1,5.3
		c-0.7,1.5-1.6,2.8-2.8,3.8c-1.1,1-2.4,1.8-3.8,2.3s-2.8,0.8-4.3,0.8c-1.4,0-2.9-0.3-4.3-0.8c-1.4-0.5-2.7-1.3-3.8-2.3
		c-1.1-1-2.1-2.3-2.8-3.8c-0.7-1.5-1-3.3-1-5.3V38.2z M152.5,64.4c0,1.7,0.5,3,1.4,3.8c1,0.8,2.1,1.2,3.4,1.2c1.3,0,2.4-0.4,3.4-1.2
		c1-0.8,1.4-2.1,1.4-3.8V38.2c0-1.7-0.5-3-1.4-3.8c-1-0.8-2.1-1.2-3.4-1.2c-1.3,0-2.4,0.4-3.4,1.2c-1,0.8-1.4,2.1-1.4,3.8V64.4z"/>
	<path class="st0" d="M200,0v76.1h-6.7l-10.9-29.8h-0.1v29.8h-7.1V26.5h6.8l10.7,29.9h0.1V7.1H24.4V62c0,2.1-0.2,4-0.6,5.8
		c-0.3,1.3-0.7,2.4-1.3,3.4c-0.4,0.6-0.8,1.2-1.3,1.7c-1,1.1-2.3,2-3.8,2.6c-0.9,0.4-2,0.7-3.1,0.9c-0.2,0-0.3,0-0.5,0.1
		c0,0,0,0,0,0c-0.2,0-0.5,0-0.8,0c-0.3,0-0.6,0-0.8,0c-0.1,0-0.3,0-0.4,0c-0.1,0-0.2,0-0.3,0c-0.3,0-0.5,0-0.7-0.1
		c-1.2-0.1-2.3-0.4-3.4-0.8c-1.5-0.6-2.8-1.4-3.8-2.5c-1.1-1-1.9-2.3-2.5-3.7C0.3,68,0,66.4,0,64.7v-2.7h7.1v2.2
		c0,1.3,0.4,2.5,1.1,3.5l0,0c0.8,1,2.1,1.6,3.9,1.6c0.1,0,0.1,0,0.2,0c0,0,0.1,0,0.1,0c0.1,0,0.3,0,0.4,0c0.8-0.1,1.5-0.2,2-0.5
		c0.7-0.4,1.2-0.8,1.5-1.5c0.3-0.6,0.6-1.3,0.7-2.2c0.1-0.5,0.1-1.1,0.1-1.8V0H200z"/>
</g>
<rect x="96.4" y="-14.6" transform="matrix(-1.836970e-16 1 -1 -1.836970e-16 185.4417 -14.5586)" class="st1" width="7.1" height="200"/>
<g>
	<g>
		<polygon class="st0" points="45.5,22.7 43.4,22.7 41.6,17.8 40.9,19.1 40.9,22.7 38.9,22.7 38.9,10.8 40.9,10.8 40.9,15.7 
			43.1,10.8 45.1,10.8 42.7,15.6 		"/>
	</g>
	<g>
		<polygon class="st0" points="91.2,10.8 88.8,17.7 88.8,22.7 86.9,22.7 86.9,17.7 84.6,10.8 86.6,10.8 87.9,15.2 89.1,10.8 		"/>
	</g>
	<g>
		<polygon class="st0" points="136.4,20.8 136.4,22.7 131.1,22.7 131.1,10.8 133.1,10.8 133.1,20.8 		"/>
	</g>
	<g>
		<polygon class="st0" points="178.6,12.7 178.6,15.8 181.4,15.8 181.4,17.6 178.6,17.6 178.6,20.8 181.8,20.8 181.8,22.7 
			176.6,22.7 176.6,10.8 181.8,10.8 181.8,12.7 		"/>
	</g>
</g>
</svg>
