<svg xmlns="http://www.w3.org/2000/svg" width="758" height="766" viewBox="0 0 758 766"><style type="text/css">.st0{fill:#1EAEFA;} .st1{fill:#FFFFFF;}</style><path class="st0" d="M380.9 751.1c-203.3 0-368.1-164.8-368.1-368.1s164.8-368.1 368.1-368.1 368.1 164.8 368.1 368.1-164.8 368.1-368.1 368.1z"/><path class="st1" d="M336.3 367.5s43.8-3.3 43.8-54.6-35.8-76.4-81.2-76.4h-149.3v286.9h149.3s91.1 2.9 91.1-84.7c0 0 4-71.2-53.7-71.2zm-48.2-80h10.8s20.3 0 20.3 29.9c0 29.8-11.9 34.2-25.5 34.2h-78.3v-64h72.7v-.1zm6.6 184.9h-79.3v-76.7h83.5s30.3-.4 30.3 39.4c-.1 33.6-22.7 37.1-34.5 37.3zM511.6 309.5c-110.3 0-110.2 110.2-110.2 110.2s-7.6 109.7 110.2 109.7c0 0 98.1 5.6 98.1-76.3h-50.5s1.7 30.9-46 30.9c0 0-50.5 3.4-50.5-49.9h148.7c0-.1 16.3-124.6-99.8-124.6zm-49.4 86.2s6.2-44.2 50.5-44.2l43.7 44.2h-94.2zM449.8 253.4h118.4v35.3h-118.4z"/></svg>