<svg xmlns="http://www.w3.org/2000/svg" width="758" height="766" viewBox="0 0 758 766"><style type="text/css">.st0{fill:#1EAEFA;} .st1{fill:#FFFFFF;}</style><path class="st0" d="M379 751.1c-203.3 0-368.1-164.8-368.1-368.1s164.8-368.1 368.1-368.1 368.1 164.8 368.1 368.1-164.8 368.1-368.1 368.1z"/><path class="st1" d="M216.1 163.8h325.8c31 0 56.3 25.3 56.3 56.3v325.8c0 30.9-25.3 56.2-56.3 56.2h-325.8c-31 0-56.3-25.3-56.3-56.2v-325.8c0-31 25.3-56.3 56.3-56.3zm263.1 48.7c-10.9 0-19.7 8.9-19.7 19.8v47.2c0 10.9 8.9 19.7 19.7 19.7h49.5c10.9 0 19.7-8.9 19.7-19.7v-47.2c0-10.9-8.9-19.8-19.7-19.8h-49.5zm69.4 136.7h-38.6c3.7 11.9 5.6 24.5 5.6 37.6 0 72.9-61 132-136.3 132-75.2 0-136.3-59.1-136.3-132 0-13.1 2-25.7 5.6-37.6h-40.2v185.2c0 9.6 7.8 17.4 17.4 17.4h305.3c9.6 0 17.4-7.8 17.4-17.4l.1-185.2zm-169.2-52.4c-48.6 0-88 38.2-88 85.3s39.4 85.3 88 85.3 88-38.2 88-85.3c.1-47.2-39.4-85.3-88-85.3z"/></svg>