<svg xmlns="http://www.w3.org/2000/svg" width="758" height="766" viewBox="0 0 758 766"><style type="text/css">.st0{fill:#1EAEFA;} .st1{fill:#FFFFFF;}</style><path class="st0" d="M379 751.1c-203.3 0-368.1-164.8-368.1-368.1s164.8-368.1 368.1-368.1 368.1 164.8 368.1 368.1-164.8 368.1-368.1 368.1z"/><path class="st1" d="M160.1 307.1h93.9v301.7h-93.9v-301.7zm47-149.9c30 0 54.4 24.4 54.4 54.4s-24.3 54.4-54.4 54.4-54.4-24.4-54.4-54.4c-.1-30.1 24.2-54.4 54.4-54.4"/><path class="st1" d="M312.9 307.1h89.9v41.2h1.3c12.5-23.7 43.1-48.7 88.8-48.7 94.9 0 112.5 62.5 112.5 143.7v165.5h-93.7v-146.6c0-35-.7-80-48.8-80-48.8 0-56.3 38.1-56.3 77.4v149.3h-93.7v-301.8z"/></svg>