<svg xmlns="http://www.w3.org/2000/svg" viewBox="0 0 200 89" enable-background="new 0 0 200 89"><style type="text/css">.st0{fill:#232222;} .st1{fill:#1EAEFA;}</style><path class="st0" d="M39 26.5h5.9l11.1 49.6h-7.1l-2.1-10.7h-9.7l-2.1 10.7h-7.1l11.1-49.6zm2.9 14.3l-3.6 18h7.1l-3.5-18zM82 65c0 1.5-.3 3-.9 4.4s-1.4 2.6-2.4 3.7c-1 1-2.2 1.9-3.6 2.5s-2.8.9-4.4.9c-1.3 0-2.7-.2-4.1-.6s-2.6-1-3.8-1.9-2-2.1-2.8-3.6c-.6-1.4-1-3.3-1-5.6v-27.3c0-1.6.3-3.1.8-4.5.6-1.4 1.3-2.6 2.4-3.6 1-1 2.2-1.8 3.7-2.4 1.4-.6 3-.9 4.7-.9 1.6 0 3.1.3 4.5.9s2.6 1.4 3.6 2.4 1.8 2.3 2.4 3.8c.6 1.5.9 3.1.9 4.8v2.8h-7.1v-2.4c0-1.4-.4-2.6-1.2-3.6-.8-1-1.9-1.5-3.2-1.5-1.8 0-2.9.5-3.5 1.6s-.9 2.5-.9 4.1v25.4c0 1.4.3 2.6.9 3.6s1.8 1.5 3.4 1.5c.5 0 1-.1 1.5-.2.5-.2 1-.4 1.5-.8.4-.4.8-.9 1.1-1.5.3-.7.4-1.5.4-2.4v-2.6h7.1v3zM87.8 26.5h7.1v22.6h.1l10.4-22.6h7.1l-9.7 19.9 11.5 29.8h-7.5l-8.1-22-3.8 7.2v14.8h-7.1v-49.7zM140.5 40.8h-7.1v-1.6c0-1.6-.4-3-1.1-4.2-.8-1.2-2.1-1.8-3.9-1.8-1 0-1.8.2-2.4.6-.6.4-1.1.8-1.5 1.4-.3.6-.6 1.3-.7 2-.1.8-.2 1.6-.2 2.4 0 1 0 1.8.1 2.5s.2 1.3.5 1.7c.3.5.7.9 1.2 1.3s1.3.7 2.2 1.1l5.4 2.2c1.6.6 2.9 1.3 3.8 2.1 1 .8 1.7 1.8 2.3 2.9.5 1.1.9 2.3 1.1 3.8.2 1.4.3 3 .3 4.8 0 2.1-.2 4-.6 5.8-.4 1.8-1.1 3.3-2.1 4.6-1 1.3-2.2 2.3-3.8 3s-3.5 1.1-5.8 1.1c-1.7 0-3.3-.3-4.8-.9s-2.8-1.4-3.8-2.5c-1.1-1-1.9-2.3-2.5-3.7-.6-1.4-.9-3-.9-4.7v-2.6h7.1v2.2c0 1.3.4 2.5 1.2 3.5.8 1 2.1 1.6 3.9 1.6 1.2 0 2.1-.2 2.8-.5s1.2-.8 1.5-1.5c.3-.6.6-1.4.7-2.3.1-.9.1-2 .1-3.1 0-1.3 0-2.4-.1-3.2s-.3-1.5-.6-2-.7-.9-1.3-1.3c-.5-.3-1.2-.7-2.1-1l-5.1-2.1c-3.1-1.3-5.1-2.9-6.2-5-1-2.1-1.6-4.7-1.6-7.8 0-1.9.3-3.6.8-5.3s1.3-3.1 2.3-4.3c1-1.2 2.3-2.2 3.8-2.9 1.5-.7 3.3-1.1 5.4-1.1 1.8 0 3.4.3 4.8 1 1.5.7 2.7 1.5 3.8 2.6 1 1.1 1.8 2.3 2.4 3.6.6 1.3.8 2.7.8 4.1l-.1 3.5zM145.4 38.2c0-2 .3-3.8 1-5.3s1.6-2.8 2.8-3.8c1.1-1 2.4-1.8 3.8-2.3 1.4-.5 2.8-.8 4.3-.8 1.4 0 2.9.3 4.3.8s2.7 1.3 3.8 2.3 2.1 2.3 2.8 3.8 1 3.3 1 5.3v26.2c0 2-.3 3.8-1 5.3s-1.6 2.8-2.8 3.8c-1.1 1-2.4 1.8-3.8 2.3s-2.8.8-4.3.8c-1.4 0-2.9-.3-4.3-.8s-2.7-1.3-3.8-2.3-2.1-2.3-2.8-3.8-1-3.3-1-5.3v-26.2zm7.1 26.2c0 1.7.5 3 1.4 3.8 1 .8 2.1 1.2 3.4 1.2 1.3 0 2.4-.4 3.4-1.2 1-.8 1.4-2.1 1.4-3.8v-26.2c0-1.7-.5-3-1.4-3.8-1-.8-2.1-1.2-3.4-1.2-1.3 0-2.4.4-3.4 1.2s-1.4 2.1-1.4 3.8v26.2zM200 0v76.1h-6.7l-10.9-29.8h-.1v29.8h-7.1v-49.6h6.8l10.7 29.9h.1v-49.3h-168.4v54.9c0 2.1-.2 4-.6 5.8-.3 1.3-.7 2.4-1.3 3.4-.4.6-.8 1.2-1.3 1.7-1 1.1-2.3 2-3.8 2.6-.9.4-2 .7-3.1.9-.2 0-.3 0-.5.1h-2.3c-.3 0-.5 0-.7-.1-1.2-.1-2.3-.4-3.4-.8-1.5-.6-2.8-1.4-3.8-2.5-1.1-1-1.9-2.3-2.5-3.7-.8-1.4-1.1-3-1.1-4.7v-2.7h7.1v2.2c0 1.3.4 2.5 1.1 3.5.8 1 2.1 1.6 3.9 1.6h.7000000000000001c.8-.1 1.5-.2 2-.5.7-.4 1.2-.8 1.5-1.5.3-.6.6-1.3.7-2.2.1-.5.1-1.1.1-1.8v-63.3h182.9z"/><path class="st1" d="M0 81.8h200v7.1h-200z"/><path class="st0" d="M45.5 22.7h-2.1l-1.8-4.9-.7 1.3v3.6h-2v-11.9h2v4.9l2.2-4.9h2l-2.4 4.8zM91.2 10.8l-2.4 6.9v5h-1.9v-5l-2.3-6.9h2l1.3 4.4 1.2-4.4zM136.4 20.8v1.9h-5.3v-11.9h2v10zM178.6 12.7v3.1h2.8v1.8h-2.8v3.2h3.2v1.9h-5.2v-11.9h5.2v1.9z"/></svg>