<?xml version="1.0" encoding="utf-8"?>
<!-- Generator: Adobe Illustrator 20.1.0, SVG Export Plug-In . SVG Version: 6.00 Build 0)  -->
<!DOCTYPE svg PUBLIC "-//W3C//DTD SVG 1.1//EN" "http://www.w3.org/Graphics/SVG/1.1/DTD/svg11.dtd">
<svg version="1.1" id="Layer_1" xmlns="http://www.w3.org/2000/svg" xmlns:xlink="http://www.w3.org/1999/xlink" x="0px" y="0px"
	 width="200px" height="200px" viewBox="0 0 200 200" style="enable-background:new 0 0 200 200;" xml:space="preserve">
<style type="text/css">
	.st0{fill:#FFFFFF;}
	.st1{fill:#03D2E8;}
</style>
<circle class="st0" cx="100" cy="99.8" r="97.1"/>
<g>
	<g>
		<path d="M90.3,6.6L90.3,6.6c-1.2,0.1-2.4,0.3-3.5,0.4l-0.1,0l4.6,9l0.2,0L90.3,6.6z M90.5,14.4l-1.3-2.6l-2.3-4.6
			C88,7,89.1,6.8,90.2,6.7l0.6,4.8l0.3,2.8l0.2,1.7l0,0L90.5,14.4z M90.3,6.6L90.3,6.6c-1.2,0.1-2.4,0.3-3.5,0.4l-0.1,0l4.6,9l0.2,0
			L90.3,6.6z M90.5,14.4l-1.3-2.6l-2.3-4.6C88,7,89.1,6.8,90.2,6.7l0.6,4.8l0.3,2.8l0.2,1.7l0,0L90.5,14.4z M90.3,6.6L90.3,6.6
			c-1.2,0.1-2.4,0.3-3.5,0.4l-0.1,0l4.6,9l0.2,0L90.3,6.6z M90.5,14.4l-1.3-2.6l-2.3-4.6C88,7,89.1,6.8,90.2,6.7l0.6,4.8l0.3,2.8
			l0.2,1.7l0,0L90.5,14.4z M90.3,6.6L90.3,6.6c-1.2,0.1-2.4,0.3-3.5,0.4l-0.1,0l4.6,9l0.2,0L90.3,6.6z M90.5,14.4l-1.3-2.6l-2.3-4.6
			C88,7,89.1,6.8,90.2,6.7l0.6,4.8l0.3,2.8l0.2,1.7l0,0L90.5,14.4z M90.3,6.6L90.3,6.6c-1.2,0.1-2.4,0.3-3.5,0.4l-0.1,0l4.6,9l0.2,0
			L90.3,6.6z M90.5,14.4l-1.3-2.6l-2.3-4.6C88,7,89.1,6.8,90.2,6.7l0.6,4.8l0.3,2.8l0.2,1.7l0,0L90.5,14.4z M90.3,6.6L90.3,6.6
			c-1.2,0.1-2.4,0.3-3.5,0.4l-0.1,0l4.6,9l0.2,0L90.3,6.6z M90.5,14.4l-1.3-2.6l-2.3-4.6C88,7,89.1,6.8,90.2,6.7l0.6,4.8l0.3,2.8
			l0.2,1.7l0,0L90.5,14.4z M90.3,6.6L90.3,6.6c-1.2,0.1-2.4,0.3-3.5,0.4l-0.1,0l4.6,9l0.2,0L90.3,6.6z M90.5,14.4l-1.3-2.6l-2.3-4.6
			C88,7,89.1,6.8,90.2,6.7l0.6,4.8l0.3,2.8l0.2,1.7l0,0L90.5,14.4z M90.3,6.6L90.3,6.6c-1.2,0.1-2.4,0.3-3.5,0.4l-0.1,0l4.6,9l0.2,0
			L90.3,6.6z M90.5,14.4l-1.3-2.6l-2.3-4.6C88,7,89.1,6.8,90.2,6.7l0.6,4.8l0.3,2.8l0.2,1.7l0,0L90.5,14.4z M90.3,6.6L90.3,6.6
			c-1.2,0.1-2.4,0.3-3.5,0.4l-0.1,0l4.6,9l0.2,0L90.3,6.6z M90.5,14.4l-1.3-2.6l-2.3-4.6C88,7,89.1,6.8,90.2,6.7l0.6,4.8l0.3,2.8
			l0.2,1.7l0,0L90.5,14.4z M90.3,6.6L90.3,6.6c-1.2,0.1-2.4,0.3-3.5,0.4l-0.1,0l4.6,9l0.2,0L90.3,6.6z M90.5,14.4l-1.3-2.6l-2.3-4.6
			C88,7,89.1,6.8,90.2,6.7l0.6,4.8l0.3,2.8l0.2,1.7l0,0L90.5,14.4z M90.3,6.6L90.3,6.6c-1.2,0.1-2.4,0.3-3.5,0.4l-0.1,0l4.6,9l0.2,0
			L90.3,6.6z M90.5,14.4l-1.3-2.6l-2.3-4.6C88,7,89.1,6.8,90.2,6.7l0.6,4.8l0.3,2.8l0.2,1.7l0,0L90.5,14.4z M90.3,6.6L90.3,6.6
			c-1.2,0.1-2.4,0.3-3.5,0.4l-0.1,0l4.6,9l0.2,0L90.3,6.6z M90.5,14.4l-1.3-2.6l-2.3-4.6C88,7,89.1,6.8,90.2,6.7l0.6,4.8l0.3,2.8
			l0.2,1.7l0,0L90.5,14.4z M90.3,6.6L90.3,6.6c-1.2,0.1-2.4,0.3-3.5,0.4l-0.1,0l4.6,9l0.2,0L90.3,6.6z M90.5,14.4l-1.3-2.6l-2.3-4.6
			C88,7,89.1,6.8,90.2,6.7l0.6,4.8l0.3,2.8l0.2,1.7l0,0L90.5,14.4z M90.3,6.6L90.3,6.6c-1.2,0.1-2.4,0.3-3.5,0.4l-0.1,0l4.6,9l0.2,0
			L90.3,6.6z M90.5,14.4l-1.3-2.6l-2.3-4.6C88,7,89.1,6.8,90.2,6.7l0.6,4.8l0.3,2.8l0.2,1.7l0,0L90.5,14.4z M90.3,6.6L90.3,6.6
			c-1.2,0.1-2.4,0.3-3.5,0.4l-0.1,0l4.6,9l0.2,0L90.3,6.6z M90.5,14.4l-1.3-2.6l-2.3-4.6C88,7,89.1,6.8,90.2,6.7l0.6,4.8l0.3,2.8
			l0.2,1.7l0,0L90.5,14.4z M90.3,6.6L90.3,6.6c-1.2,0.1-2.4,0.3-3.5,0.4l-0.1,0l4.6,9l0.2,0L90.3,6.6z M90.5,14.4l-1.3-2.6l-2.3-4.6
			C88,7,89.1,6.8,90.2,6.7l0.6,4.8l0.3,2.8l0.2,1.7l0,0L90.5,14.4z M90.3,6.6L90.3,6.6c-1.2,0.1-2.4,0.3-3.5,0.4l-0.1,0l4.6,9l0.2,0
			L90.3,6.6z M90.5,14.4l-1.3-2.6l-2.3-4.6C88,7,89.1,6.8,90.2,6.7l0.6,4.8l0.3,2.8l0.2,1.7l0,0L90.5,14.4z M90.3,6.6L90.3,6.6
			c-1.2,0.1-2.4,0.3-3.5,0.4l-0.1,0l4.6,9l0.2,0L90.3,6.6z M90.5,14.4l-1.3-2.6l-2.3-4.6C88,7,89.1,6.8,90.2,6.7l0.6,4.8l0.3,2.8
			l0.2,1.7l0,0L90.5,14.4z M90.3,6.6L90.3,6.6c-1.2,0.1-2.4,0.3-3.5,0.4l-0.1,0l4.6,9l0.2,0L90.3,6.6z M90.5,14.4l-1.3-2.6l-2.3-4.6
			C88,7,89.1,6.8,90.2,6.7l0.6,4.8l0.3,2.8l0.2,1.7l0,0L90.5,14.4z M90.3,6.6L90.3,6.6c-1.2,0.1-2.4,0.3-3.5,0.4l-0.1,0l4.6,9l0.2,0
			L90.3,6.6z M90.5,14.4l-1.3-2.6l-2.3-4.6C88,7,89.1,6.8,90.2,6.7l0.6,4.8l0.3,2.8l0.2,1.7l0,0L90.5,14.4z M90.3,6.6L90.3,6.6
			c-1.2,0.1-2.4,0.3-3.5,0.4l-0.1,0l4.6,9l0.2,0L90.3,6.6z M90.5,14.4l-1.3-2.6l-2.3-4.6C88,7,89.1,6.8,90.2,6.7l0.6,4.8l0.3,2.8
			l0.2,1.7l0,0L90.5,14.4z M90.3,6.6L90.3,6.6c-1.2,0.1-2.4,0.3-3.5,0.4l-0.1,0l4.6,9l0.2,0L90.3,6.6z M90.5,14.4l-1.3-2.6l-2.3-4.6
			C88,7,89.1,6.8,90.2,6.7l0.6,4.8l0.3,2.8l0.2,1.7l0,0L90.5,14.4z M90.3,6.6L90.3,6.6c-1.2,0.1-2.4,0.3-3.5,0.4l-0.1,0l4.6,9l0.2,0
			L90.3,6.6z M90.5,14.4l-1.3-2.6l-2.3-4.6C88,7,89.1,6.8,90.2,6.7l0.6,4.8l0.3,2.8l0.2,1.7l0,0L90.5,14.4z M90.3,6.6L90.3,6.6
			c-1.2,0.1-2.4,0.3-3.5,0.4l-0.1,0l4.6,9l0.2,0L90.3,6.6z M90.5,14.4l-1.3-2.6l-2.3-4.6C88,7,89.1,6.8,90.2,6.7l0.6,4.8l0.3,2.8
			l0.2,1.7l0,0L90.5,14.4z M90.3,6.6L90.3,6.6c-1.2,0.1-2.4,0.3-3.5,0.4l-0.1,0l4.6,9l0.2,0L90.3,6.6z M90.5,14.4l-1.3-2.6l-2.3-4.6
			C88,7,89.1,6.8,90.2,6.7l0.6,4.8l0.3,2.8l0.2,1.7l0,0L90.5,14.4z M90.3,6.6L90.3,6.6c-1.2,0.1-2.4,0.3-3.5,0.4l-0.1,0l4.6,9l0.2,0
			L90.3,6.6z M90.5,14.4l-1.3-2.6l-2.3-4.6C88,7,89.1,6.8,90.2,6.7l0.6,4.8l0.3,2.8l0.2,1.7l0,0L90.5,14.4z M90.3,6.6L90.3,6.6
			c-1.2,0.1-2.4,0.3-3.5,0.4l-0.1,0l4.6,9l0.2,0L90.3,6.6z M90.5,14.4l-1.3-2.6l-2.3-4.6C88,7,89.1,6.8,90.2,6.7l0.6,4.8l0.3,2.8
			l0.2,1.7l0,0L90.5,14.4z M90.3,6.6L90.3,6.6c-1.2,0.1-2.4,0.3-3.5,0.4l-0.1,0l4.6,9l0.2,0L90.3,6.6z M90.5,14.4l-1.3-2.6l-2.3-4.6
			C88,7,89.1,6.8,90.2,6.7l0.6,4.8l0.3,2.8l0.2,1.7l0,0L90.5,14.4z M197.7,78.6c-0.2-0.8-0.4-1.6-0.6-2.4c-1.3-5.2-2.9-10.3-5-15.3
			c-5-11.9-12.2-22.6-21.4-31.8c-9.2-9.2-19.9-16.4-31.8-21.4c-12.3-5.2-25.4-7.9-38.9-7.9c-13.5,0-26.6,2.6-38.9,7.9
			c-11.9,5-22.6,12.2-31.8,21.4C20.2,38.3,13,49,7.9,60.9c-2,4.8-3.7,9.7-4.9,14.7c-0.2,1-0.5,2-0.7,3c-1.5,6.9-2.2,14-2.2,21.2
			c0,13.5,2.6,26.6,7.9,38.9c5,11.9,12.2,22.6,21.4,31.8c9.2,9.2,19.9,16.4,31.8,21.4c12.3,5.2,25.4,7.9,38.9,7.9
			c13.5,0,26.6-2.6,38.9-7.9c11.9-5,22.6-12.2,31.8-21.4c9.2-9.2,16.4-19.9,21.4-31.8c5.2-12.3,7.9-25.4,7.9-38.9
			C199.9,92.6,199.2,85.5,197.7,78.6z M192,138.7c-5,11.9-12.2,22.6-21.4,31.7c-9.2,9.2-19.9,16.4-31.7,21.4
			c-12.3,5.2-25.4,7.8-38.9,7.8c-13.5,0-26.6-2.6-38.9-7.8c-11.9-5-22.6-12.2-31.7-21.4C20.2,161.2,13,150.6,8,138.7
			c-5.2-12.3-7.8-25.4-7.8-38.9c0-7.2,0.8-14.3,2.2-21.2c0.2-1,0.4-2,0.7-3c1.2-5,2.9-9.9,4.9-14.7C13,49,20.2,38.4,29.4,29.2
			C38.6,20,49.2,12.8,61.1,7.8C73.4,2.6,86.5-0.1,100-0.1c13.5,0,26.6,2.6,38.9,7.8c11.9,5,22.6,12.2,31.7,21.4
			C179.8,38.4,187,49,192,60.9c2.1,4.9,3.8,10.1,5,15.2c0.2,0.8,0.4,1.6,0.6,2.4c1.5,6.9,2.2,14,2.2,21.2
			C199.9,113.3,197.2,126.3,192,138.7z M90.2,6.7c-1.1,0.1-2.3,0.3-3.4,0.4l-0.1,0l4.6,9l0.2,0L90.2,6.7L90.2,6.7z M91.2,14.3
			l0.2,1.7l0,0l-0.8-1.7l-1.3-2.6l-2.3-4.6C88,7,89.1,6.8,90.2,6.7l0.6,4.8L91.2,14.3z M90.3,6.6L90.3,6.6c-1.2,0.1-2.4,0.3-3.5,0.4
			l-0.1,0l4.6,9l0.2,0L90.3,6.6z M90.5,14.4l-1.3-2.6l-2.3-4.6C88,7,89.1,6.8,90.2,6.7l0.6,4.8l0.3,2.8l0.2,1.7l0,0L90.5,14.4z
			 M90.3,6.6L90.3,6.6c-1.2,0.1-2.4,0.3-3.5,0.4l-0.1,0l4.6,9l0.2,0L90.3,6.6z M90.5,14.4l-1.3-2.6l-2.3-4.6C88,7,89.1,6.8,90.2,6.7
			l0.6,4.8l0.3,2.8l0.2,1.7l0,0L90.5,14.4z M90.3,6.6L90.3,6.6c-1.2,0.1-2.4,0.3-3.5,0.4l-0.1,0l4.6,9l0.2,0L90.3,6.6z M90.5,14.4
			l-1.3-2.6l-2.3-4.6C88,7,89.1,6.8,90.2,6.7l0.6,4.8l0.3,2.8l0.2,1.7l0,0L90.5,14.4z M90.3,6.6L90.3,6.6c-1.2,0.1-2.4,0.3-3.5,0.4
			l-0.1,0l4.6,9l0.2,0L90.3,6.6z M90.5,14.4l-1.3-2.6l-2.3-4.6C88,7,89.1,6.8,90.2,6.7l0.6,4.8l0.3,2.8l0.2,1.7l0,0L90.5,14.4z
			 M90.3,6.6L90.3,6.6c-1.2,0.1-2.4,0.3-3.5,0.4l-0.1,0l4.6,9l0.2,0L90.3,6.6z M90.5,14.4l-1.3-2.6l-2.3-4.6C88,7,89.1,6.8,90.2,6.7
			l0.6,4.8l0.3,2.8l0.2,1.7l0,0L90.5,14.4z M90.3,6.6L90.3,6.6c-1.2,0.1-2.4,0.3-3.5,0.4l-0.1,0l4.6,9l0.2,0L90.3,6.6z M90.5,14.4
			l-1.3-2.6l-2.3-4.6C88,7,89.1,6.8,90.2,6.7l0.6,4.8l0.3,2.8l0.2,1.7l0,0L90.5,14.4z M90.3,6.6L90.3,6.6c-1.2,0.1-2.4,0.3-3.5,0.4
			l-0.1,0l4.6,9l0.2,0L90.3,6.6z M90.5,14.4l-1.3-2.6l-2.3-4.6C88,7,89.1,6.8,90.2,6.7l0.6,4.8l0.3,2.8l0.2,1.7l0,0L90.5,14.4z
			 M90.3,6.6L90.3,6.6c-1.2,0.1-2.4,0.3-3.5,0.4l-0.1,0l4.6,9l0.2,0L90.3,6.6z M90.5,14.4l-1.3-2.6l-2.3-4.6C88,7,89.1,6.8,90.2,6.7
			l0.6,4.8l0.3,2.8l0.2,1.7l0,0L90.5,14.4z M90.3,6.6L90.3,6.6c-1.2,0.1-2.4,0.3-3.5,0.4l-0.1,0l4.6,9l0.2,0L90.3,6.6z M90.5,14.4
			l-1.3-2.6l-2.3-4.6C88,7,89.1,6.8,90.2,6.7l0.6,4.8l0.3,2.8l0.2,1.7l0,0L90.5,14.4z M90.3,6.6L90.3,6.6c-1.2,0.1-2.4,0.3-3.5,0.4
			l-0.1,0l4.6,9l0.2,0L90.3,6.6z M90.5,14.4l-1.3-2.6l-2.3-4.6C88,7,89.1,6.8,90.2,6.7l0.6,4.8l0.3,2.8l0.2,1.7l0,0L90.5,14.4z
			 M90.3,6.6L90.3,6.6c-1.2,0.1-2.4,0.3-3.5,0.4l-0.1,0l4.6,9l0.2,0L90.3,6.6z M90.5,14.4l-1.3-2.6l-2.3-4.6C88,7,89.1,6.8,90.2,6.7
			l0.6,4.8l0.3,2.8l0.2,1.7l0,0L90.5,14.4z M90.3,6.6L90.3,6.6c-1.2,0.1-2.4,0.3-3.5,0.4l-0.1,0l4.6,9l0.2,0L90.3,6.6z M90.5,14.4
			l-1.3-2.6l-2.3-4.6C88,7,89.1,6.8,90.2,6.7l0.6,4.8l0.3,2.8l0.2,1.7l0,0L90.5,14.4z M90.3,6.6L90.3,6.6c-1.2,0.1-2.4,0.3-3.5,0.4
			l-0.1,0l4.6,9l0.2,0L90.3,6.6z M90.5,14.4l-1.3-2.6l-2.3-4.6C88,7,89.1,6.8,90.2,6.7l0.6,4.8l0.3,2.8l0.2,1.7l0,0L90.5,14.4z
			 M90.3,6.6L90.3,6.6c-1.2,0.1-2.4,0.3-3.5,0.4l-0.1,0l4.6,9l0.2,0L90.3,6.6z M90.5,14.4l-1.3-2.6l-2.3-4.6C88,7,89.1,6.8,90.2,6.7
			l0.6,4.8l0.3,2.8l0.2,1.7l0,0L90.5,14.4z M90.3,6.6L90.3,6.6c-1.2,0.1-2.4,0.3-3.5,0.4l-0.1,0l4.6,9l0.2,0L90.3,6.6z M90.5,14.4
			l-1.3-2.6l-2.3-4.6C88,7,89.1,6.8,90.2,6.7l0.6,4.8l0.3,2.8l0.2,1.7l0,0L90.5,14.4z M90.3,6.6L90.3,6.6c-1.2,0.1-2.4,0.3-3.5,0.4
			l-0.1,0l4.6,9l0.2,0L90.3,6.6z M90.5,14.4l-1.3-2.6l-2.3-4.6C88,7,89.1,6.8,90.2,6.7l0.6,4.8l0.3,2.8l0.2,1.7l0,0L90.5,14.4z
			 M90.3,6.6L90.3,6.6c-1.2,0.1-2.4,0.3-3.5,0.4l-0.1,0l4.6,9l0.2,0L90.3,6.6z M90.5,14.4l-1.3-2.6l-2.3-4.6C88,7,89.1,6.8,90.2,6.7
			l0.6,4.8l0.3,2.8l0.2,1.7l0,0L90.5,14.4z M90.3,6.6L90.3,6.6c-1.2,0.1-2.4,0.3-3.5,0.4l-0.1,0l4.6,9l0.2,0L90.3,6.6z M90.5,14.4
			l-1.3-2.6l-2.3-4.6C88,7,89.1,6.8,90.2,6.7l0.6,4.8l0.3,2.8l0.2,1.7l0,0L90.5,14.4z M90.3,6.6L90.3,6.6c-1.2,0.1-2.4,0.3-3.5,0.4
			l-0.1,0l4.6,9l0.2,0L90.3,6.6z M90.5,14.4l-1.3-2.6l-2.3-4.6C88,7,89.1,6.8,90.2,6.7l0.6,4.8l0.3,2.8l0.2,1.7l0,0L90.5,14.4z
			 M90.3,6.6L90.3,6.6c-1.2,0.1-2.4,0.3-3.5,0.4l-0.1,0l4.6,9l0.2,0L90.3,6.6z M90.5,14.4l-1.3-2.6l-2.3-4.6C88,7,89.1,6.8,90.2,6.7
			l0.6,4.8l0.3,2.8l0.2,1.7l0,0L90.5,14.4z M90.3,6.6L90.3,6.6c-1.2,0.1-2.4,0.3-3.5,0.4l-0.1,0l4.6,9l0.2,0L90.3,6.6z M90.5,14.4
			l-1.3-2.6l-2.3-4.6C88,7,89.1,6.8,90.2,6.7l0.6,4.8l0.3,2.8l0.2,1.7l0,0L90.5,14.4z M90.3,6.6L90.3,6.6c-1.2,0.1-2.4,0.3-3.5,0.4
			l-0.1,0l4.6,9l0.2,0L90.3,6.6z M90.5,14.4l-1.3-2.6l-2.3-4.6C88,7,89.1,6.8,90.2,6.7l0.6,4.8l0.3,2.8l0.2,1.7l0,0L90.5,14.4z
			 M90.3,6.6L90.3,6.6c-1.2,0.1-2.4,0.3-3.5,0.4l-0.1,0l4.6,9l0.2,0L90.3,6.6z M90.5,14.4l-1.3-2.6l-2.3-4.6C88,7,89.1,6.8,90.2,6.7
			l0.6,4.8l0.3,2.8l0.2,1.7l0,0L90.5,14.4z M90.3,6.6L90.3,6.6c-1.2,0.1-2.4,0.3-3.5,0.4l-0.1,0l4.6,9l0.2,0L90.3,6.6z M90.5,14.4
			l-1.3-2.6l-2.3-4.6C88,7,89.1,6.8,90.2,6.7l0.6,4.8l0.3,2.8l0.2,1.7l0,0L90.5,14.4z M90.3,6.6L90.3,6.6c-1.2,0.1-2.4,0.3-3.5,0.4
			l-0.1,0l4.6,9l0.2,0L90.3,6.6z M90.5,14.4l-1.3-2.6l-2.3-4.6C88,7,89.1,6.8,90.2,6.7l0.6,4.8l0.3,2.8l0.2,1.7l0,0L90.5,14.4z
			 M90.3,6.6L90.3,6.6c-1.2,0.1-2.4,0.3-3.5,0.4l-0.1,0l4.6,9l0.2,0L90.3,6.6z M90.5,14.4l-1.3-2.6l-2.3-4.6C88,7,89.1,6.8,90.2,6.7
			l0.6,4.8l0.3,2.8l0.2,1.7l0,0L90.5,14.4z M90.3,6.6L90.3,6.6c-1.2,0.1-2.4,0.3-3.5,0.4l-0.1,0l4.6,9l0.2,0L90.3,6.6z M90.5,14.4
			l-1.3-2.6l-2.3-4.6C88,7,89.1,6.8,90.2,6.7l0.6,4.8l0.3,2.8l0.2,1.7l0,0L90.5,14.4z M90.3,6.6L90.3,6.6c-1.2,0.1-2.4,0.3-3.5,0.4
			l-0.1,0l4.6,9l0.2,0L90.3,6.6z M90.5,14.4l-1.3-2.6l-2.3-4.6C88,7,89.1,6.8,90.2,6.7l0.6,4.8l0.3,2.8l0.2,1.7l0,0L90.5,14.4z"/>
		<path d="M90.3,6.6L90.3,6.6c-1.2,0.1-2.4,0.3-3.5,0.4l-0.1,0l4.6,9l0.2,0L90.3,6.6z M90.2,6.8l1.1,9l-4.3-8.6
			C88,7,89.1,6.9,90.2,6.8z M90.3,6.6L90.3,6.6c-1.2,0.1-2.4,0.3-3.5,0.4l-0.1,0l4.6,9l0.2,0L90.3,6.6z M90.2,6.8l1.1,9l-4.3-8.6
			C88,7,89.1,6.9,90.2,6.8z M90.3,6.6L90.3,6.6c-1.2,0.1-2.4,0.3-3.5,0.4l-0.1,0l4.6,9l0.2,0L90.3,6.6z M90.2,6.8l1.1,9l-4.3-8.6
			C88,7,89.1,6.9,90.2,6.8z M90.3,6.6L90.3,6.6c-1.2,0.1-2.4,0.3-3.5,0.4l-0.1,0l4.6,9l0.2,0L90.3,6.6z M90.2,6.8l1.1,9l-4.3-8.6
			C88,7,89.1,6.9,90.2,6.8z M90.3,6.6L90.3,6.6c-1.2,0.1-2.4,0.3-3.5,0.4l-0.1,0l4.6,9l0.2,0L90.3,6.6z M90.2,6.8l1.1,9l-4.3-8.6
			C88,7,89.1,6.9,90.2,6.8z M90.3,6.6L90.3,6.6c-1.2,0.1-2.4,0.3-3.5,0.4l-0.1,0l4.6,9l0.2,0L90.3,6.6z M90.2,6.8l1.1,9l-4.3-8.6
			C88,7,89.1,6.9,90.2,6.8z M90.3,6.6L90.3,6.6c-1.2,0.1-2.4,0.3-3.5,0.4l-0.1,0l4.6,9l0.2,0L90.3,6.6z M90.2,6.8l1.1,9l-4.3-8.6
			C88,7,89.1,6.9,90.2,6.8z M90.3,6.6L90.3,6.6c-1.2,0.1-2.4,0.3-3.5,0.4l-0.1,0l4.6,9l0.2,0L90.3,6.6z M90.2,6.8l1.1,9l-4.3-8.6
			C88,7,89.1,6.9,90.2,6.8z M90.3,6.6L90.3,6.6c-1.2,0.1-2.4,0.3-3.5,0.4l-0.1,0l4.6,9l0.2,0L90.3,6.6z M90.2,6.8l1.1,9l-4.3-8.6
			C88,7,89.1,6.9,90.2,6.8z M90.3,6.6L90.3,6.6c-1.2,0.1-2.4,0.3-3.5,0.4l-0.1,0l4.6,9l0.2,0L90.3,6.6z M90.2,6.8l1.1,9l-4.3-8.6
			C88,7,89.1,6.9,90.2,6.8z M90.3,6.6L90.3,6.6c-1.2,0.1-2.4,0.3-3.5,0.4l-0.1,0l4.6,9l0.2,0L90.3,6.6z M90.2,6.8l1.1,9l-4.3-8.6
			C88,7,89.1,6.9,90.2,6.8z M90.3,6.6L90.3,6.6c-1.2,0.1-2.4,0.3-3.5,0.4l-0.1,0l4.6,9l0.2,0L90.3,6.6z M90.2,6.8l1.1,9l-4.3-8.6
			C88,7,89.1,6.9,90.2,6.8z M90.3,6.6L90.3,6.6c-1.2,0.1-2.4,0.3-3.5,0.4l-0.1,0l4.6,9l0.2,0L90.3,6.6z M90.2,6.8l1.1,9l-4.3-8.6
			C88,7,89.1,6.9,90.2,6.8z M90.3,6.6L90.3,6.6c-1.2,0.1-2.4,0.3-3.5,0.4l-0.1,0l4.6,9l0.2,0L90.3,6.6z M90.2,6.8l1.1,9l-4.3-8.6
			C88,7,89.1,6.9,90.2,6.8z M90.3,6.6L90.3,6.6c-1.2,0.1-2.4,0.3-3.5,0.4l-0.1,0l4.6,9l0.2,0L90.3,6.6z M90.2,6.8l1.1,9l-4.3-8.6
			C88,7,89.1,6.9,90.2,6.8z M90.3,6.6L90.3,6.6c-1.2,0.1-2.4,0.3-3.5,0.4l-0.1,0l4.6,9l0.2,0L90.3,6.6z M90.2,6.8l1.1,9l-4.3-8.6
			C88,7,89.1,6.9,90.2,6.8z M90.3,6.6L90.3,6.6c-1.2,0.1-2.4,0.3-3.5,0.4l-0.1,0l4.6,9l0.2,0L90.3,6.6z M90.2,6.8l1.1,9l-4.3-8.6
			C88,7,89.1,6.9,90.2,6.8z M90.3,6.6L90.3,6.6c-1.2,0.1-2.4,0.3-3.5,0.4l-0.1,0l4.6,9l0.2,0L90.3,6.6z M90.2,6.8l1.1,9l-4.3-8.6
			C88,7,89.1,6.9,90.2,6.8z M90.3,6.6L90.3,6.6c-1.2,0.1-2.4,0.3-3.5,0.4l-0.1,0l4.6,9l0.2,0L90.3,6.6z M90.2,6.8l1.1,9l-4.3-8.6
			C88,7,89.1,6.9,90.2,6.8z M90.3,6.6L90.3,6.6c-1.2,0.1-2.4,0.3-3.5,0.4l-0.1,0l4.6,9l0.2,0L90.3,6.6z M90.2,6.8l1.1,9l-4.3-8.6
			C88,7,89.1,6.9,90.2,6.8z M90.3,6.6L90.3,6.6c-1.2,0.1-2.4,0.3-3.5,0.4l-0.1,0l4.6,9l0.2,0L90.3,6.6z M90.2,6.8l1.1,9l-4.3-8.6
			C88,7,89.1,6.9,90.2,6.8z M90.3,6.6L90.3,6.6c-1.2,0.1-2.4,0.3-3.5,0.4l-0.1,0l4.6,9l0.2,0L90.3,6.6z M90.2,6.8l1.1,9l-4.3-8.6
			C88,7,89.1,6.9,90.2,6.8z M90.3,6.6L90.3,6.6c-1.2,0.1-2.4,0.3-3.5,0.4l-0.1,0l4.6,9l0.2,0L90.3,6.6z M90.2,6.8l1.1,9l-4.3-8.6
			C88,7,89.1,6.9,90.2,6.8z M90.3,6.6L90.3,6.6c-1.2,0.1-2.4,0.3-3.5,0.4l-0.1,0l4.6,9l0.2,0L90.3,6.6z M90.2,6.8l1.1,9l-4.3-8.6
			C88,7,89.1,6.9,90.2,6.8z M90.3,6.6L90.3,6.6c-1.2,0.1-2.4,0.3-3.5,0.4l-0.1,0l4.6,9l0.2,0L90.3,6.6z M90.2,6.8l1.1,9l-4.3-8.6
			C88,7,89.1,6.9,90.2,6.8z M90.3,6.6L90.3,6.6c-1.2,0.1-2.4,0.3-3.5,0.4l-0.1,0l4.6,9l0.2,0L90.3,6.6z M90.2,6.8l1.1,9l-4.3-8.6
			C88,7,89.1,6.9,90.2,6.8z M90.3,6.6L90.3,6.6c-1.2,0.1-2.4,0.3-3.5,0.4l-0.1,0l4.6,9l0.2,0L90.3,6.6z M90.2,6.8l1.1,9l-4.3-8.6
			C88,7,89.1,6.9,90.2,6.8z M90.3,6.6L90.3,6.6c-1.2,0.1-2.4,0.3-3.5,0.4l-0.1,0l4.6,9l0.2,0L90.3,6.6z M90.2,6.8l1.1,9l-4.3-8.6
			C88,7,89.1,6.9,90.2,6.8z M90.3,6.6L90.3,6.6c-1.2,0.1-2.4,0.3-3.5,0.4l-0.1,0l4.6,9l0.2,0L90.3,6.6z M90.2,6.8l1.1,9l-4.3-8.6
			C88,7,89.1,6.9,90.2,6.8z M90.3,6.6L90.3,6.6c-1.2,0.1-2.4,0.3-3.5,0.4l-0.1,0l4.6,9l0.2,0L90.3,6.6z M90.2,6.8l1.1,9l-4.3-8.6
			C88,7,89.1,6.9,90.2,6.8z M199.4,89.1c-0.4-3.5-0.9-7.1-1.7-10.5c-0.2-0.8-0.4-1.6-0.6-2.4c-1.3-5.2-3-10.3-5.1-15.3
			c-5-11.9-12.2-22.6-21.4-31.8c-9.2-9.2-19.9-16.4-31.8-21.4c-12.3-5.2-25.4-7.9-38.9-7.9c-13.5,0-26.6,2.6-38.9,7.9
			c-11.9,5-22.6,12.2-31.8,21.4C20.1,38.3,12.9,49,7.9,60.9c-2,4.8-3.7,9.7-4.9,14.7c-0.2,1-0.5,2-0.7,3C0.8,85.5,0,92.6,0,99.8
			c0,13.5,2.6,26.6,7.9,38.9c5,11.9,12.2,22.6,21.4,31.8c9.2,9.2,19.9,16.4,31.8,21.4c12.3,5.2,25.4,7.9,38.9,7.9
			c13.5,0,26.6-2.6,38.9-7.9c11.9-5,22.6-12.2,31.8-21.4c9.2-9.2,16.4-19.9,21.4-31.8c5.2-12.3,7.9-25.4,7.9-38.9
			C200,96.2,199.8,92.6,199.4,89.1z M100,199.6c-13.5,0-26.6-2.6-38.9-7.8c-11.9-5-22.6-12.2-31.7-21.4C20.2,161.2,13,150.6,8,138.7
			c-5.2-12.3-7.8-25.4-7.8-38.9c0-7.2,0.8-14.3,2.2-21.2c0.2-1,0.4-2,0.7-3c1.2-5,2.9-9.9,4.9-14.7C13,49,20.2,38.4,29.4,29.2
			C38.6,20,49.2,12.8,61.1,7.8C73.4,2.6,86.5-0.1,100-0.1c13.5,0,26.6,2.6,38.9,7.8c11.9,5,22.6,12.2,31.7,21.4
			C179.8,38.4,187,49,192,60.9c2.1,4.9,3.8,10.1,5,15.2c0.2,0.8,0.4,1.6,0.6,2.4c1.5,6.9,2.2,14,2.2,21.2c0,13.5-2.6,26.6-7.8,38.9
			c-5,11.9-12.2,22.6-21.4,31.7c-9.2,9.2-19.9,16.4-31.7,21.4C126.6,197,113.5,199.6,100,199.6z M90.2,6.7c-1.1,0.1-2.3,0.3-3.4,0.4
			l-0.1,0l4.6,9l0.2,0L90.2,6.7L90.2,6.7z M90.2,6.8l1.1,9l-4.3-8.6C88,7,89.1,6.9,90.2,6.8z M90.3,6.6L90.3,6.6
			c-1.2,0.1-2.4,0.3-3.5,0.4l-0.1,0l4.6,9l0.2,0L90.3,6.6z M90.2,6.8l1.1,9l-4.3-8.6C88,7,89.1,6.9,90.2,6.8z M90.3,6.6L90.3,6.6
			c-1.2,0.1-2.4,0.3-3.5,0.4l-0.1,0l4.6,9l0.2,0L90.3,6.6z M90.2,6.8l1.1,9l-4.3-8.6C88,7,89.1,6.9,90.2,6.8z M90.3,6.6L90.3,6.6
			c-1.2,0.1-2.4,0.3-3.5,0.4l-0.1,0l4.6,9l0.2,0L90.3,6.6z M90.2,6.8l1.1,9l-4.3-8.6C88,7,89.1,6.9,90.2,6.8z M90.3,6.6L90.3,6.6
			c-1.2,0.1-2.4,0.3-3.5,0.4l-0.1,0l4.6,9l0.2,0L90.3,6.6z M90.2,6.8l1.1,9l-4.3-8.6C88,7,89.1,6.9,90.2,6.8z M90.3,6.6L90.3,6.6
			c-1.2,0.1-2.4,0.3-3.5,0.4l-0.1,0l4.6,9l0.2,0L90.3,6.6z M90.2,6.8l1.1,9l-4.3-8.6C88,7,89.1,6.9,90.2,6.8z M90.3,6.6L90.3,6.6
			c-1.2,0.1-2.4,0.3-3.5,0.4l-0.1,0l4.6,9l0.2,0L90.3,6.6z M90.2,6.8l1.1,9l-4.3-8.6C88,7,89.1,6.9,90.2,6.8z M90.3,6.6L90.3,6.6
			c-1.2,0.1-2.4,0.3-3.5,0.4l-0.1,0l4.6,9l0.2,0L90.3,6.6z M90.2,6.8l1.1,9l-4.3-8.6C88,7,89.1,6.9,90.2,6.8z M90.3,6.6L90.3,6.6
			c-1.2,0.1-2.4,0.3-3.5,0.4l-0.1,0l4.6,9l0.2,0L90.3,6.6z M90.2,6.8l1.1,9l-4.3-8.6C88,7,89.1,6.9,90.2,6.8z M90.3,6.6L90.3,6.6
			c-1.2,0.1-2.4,0.3-3.5,0.4l-0.1,0l4.6,9l0.2,0L90.3,6.6z M90.2,6.8l1.1,9l-4.3-8.6C88,7,89.1,6.9,90.2,6.8z M90.3,6.6L90.3,6.6
			c-1.2,0.1-2.4,0.3-3.5,0.4l-0.1,0l4.6,9l0.2,0L90.3,6.6z M90.2,6.8l1.1,9l-4.3-8.6C88,7,89.1,6.9,90.2,6.8z M90.3,6.6L90.3,6.6
			c-1.2,0.1-2.4,0.3-3.5,0.4l-0.1,0l4.6,9l0.2,0L90.3,6.6z M90.2,6.8l1.1,9l-4.3-8.6C88,7,89.1,6.9,90.2,6.8z M90.3,6.6L90.3,6.6
			c-1.2,0.1-2.4,0.3-3.5,0.4l-0.1,0l4.6,9l0.2,0L90.3,6.6z M90.2,6.8l1.1,9l-4.3-8.6C88,7,89.1,6.9,90.2,6.8z M90.3,6.6L90.3,6.6
			c-1.2,0.1-2.4,0.3-3.5,0.4l-0.1,0l4.6,9l0.2,0L90.3,6.6z M90.2,6.8l1.1,9l-4.3-8.6C88,7,89.1,6.9,90.2,6.8z M90.3,6.6L90.3,6.6
			c-1.2,0.1-2.4,0.3-3.5,0.4l-0.1,0l4.6,9l0.2,0L90.3,6.6z M90.2,6.8l1.1,9l-4.3-8.6C88,7,89.1,6.9,90.2,6.8z M90.3,6.6L90.3,6.6
			c-1.2,0.1-2.4,0.3-3.5,0.4l-0.1,0l4.6,9l0.2,0L90.3,6.6z M90.2,6.8l1.1,9l-4.3-8.6C88,7,89.1,6.9,90.2,6.8z M90.3,6.6L90.3,6.6
			c-1.2,0.1-2.4,0.3-3.5,0.4l-0.1,0l4.6,9l0.2,0L90.3,6.6z M90.2,6.8l1.1,9l-4.3-8.6C88,7,89.1,6.9,90.2,6.8z M90.3,6.6L90.3,6.6
			c-1.2,0.1-2.4,0.3-3.5,0.4l-0.1,0l4.6,9l0.2,0L90.3,6.6z M90.2,6.8l1.1,9l-4.3-8.6C88,7,89.1,6.9,90.2,6.8z M90.3,6.6L90.3,6.6
			c-1.2,0.1-2.4,0.3-3.5,0.4l-0.1,0l4.6,9l0.2,0L90.3,6.6z M90.2,6.8l1.1,9l-4.3-8.6C88,7,89.1,6.9,90.2,6.8z M90.3,6.6L90.3,6.6
			c-1.2,0.1-2.4,0.3-3.5,0.4l-0.1,0l4.6,9l0.2,0L90.3,6.6z M90.2,6.8l1.1,9l-4.3-8.6C88,7,89.1,6.9,90.2,6.8z M90.3,6.6L90.3,6.6
			c-1.2,0.1-2.4,0.3-3.5,0.4l-0.1,0l4.6,9l0.2,0L90.3,6.6z M90.2,6.8l1.1,9l-4.3-8.6C88,7,89.1,6.9,90.2,6.8z M90.3,6.6L90.3,6.6
			c-1.2,0.1-2.4,0.3-3.5,0.4l-0.1,0l4.6,9l0.2,0L90.3,6.6z M90.2,6.8l1.1,9l-4.3-8.6C88,7,89.1,6.9,90.2,6.8z M90.3,6.6L90.3,6.6
			c-1.2,0.1-2.4,0.3-3.5,0.4l-0.1,0l4.6,9l0.2,0L90.3,6.6z M90.2,6.8l1.1,9l-4.3-8.6C88,7,89.1,6.9,90.2,6.8z M90.3,6.6L90.3,6.6
			c-1.2,0.1-2.4,0.3-3.5,0.4l-0.1,0l4.6,9l0.2,0L90.3,6.6z M90.2,6.8l1.1,9l-4.3-8.6C88,7,89.1,6.9,90.2,6.8z M90.3,6.6L90.3,6.6
			c-1.2,0.1-2.4,0.3-3.5,0.4l-0.1,0l4.6,9l0.2,0L90.3,6.6z M90.2,6.8l1.1,9l-4.3-8.6C88,7,89.1,6.9,90.2,6.8z M90.3,6.6L90.3,6.6
			c-1.2,0.1-2.4,0.3-3.5,0.4l-0.1,0l4.6,9l0.2,0L90.3,6.6z M90.2,6.8l1.1,9l-4.3-8.6C88,7,89.1,6.9,90.2,6.8z M90.3,6.6L90.3,6.6
			c-1.2,0.1-2.4,0.3-3.5,0.4l-0.1,0l4.6,9l0.2,0L90.3,6.6z M90.2,6.8l1.1,9l-4.3-8.6C88,7,89.1,6.9,90.2,6.8z M90.3,6.6L90.3,6.6
			c-1.2,0.1-2.4,0.3-3.5,0.4l-0.1,0l4.6,9l0.2,0L90.3,6.6z M90.2,6.8l1.1,9l-4.3-8.6C88,7,89.1,6.9,90.2,6.8z M90.3,6.6L90.3,6.6
			c-1.2,0.1-2.4,0.3-3.5,0.4l-0.1,0l4.6,9l0.2,0L90.3,6.6z M90.2,6.8l1.1,9l-4.3-8.6C88,7,89.1,6.9,90.2,6.8z"/>
		<path d="M168,51.9c0.3-0.2,0.5-0.4,0.7-0.6c0.3-0.2,0.5-0.4,0.7-0.6L168,51.9z"/>
		<path d="M96.3,49.1L96.3,49.1l0.8,2.9L96.3,49.1z"/>
		<path d="M94.5,62.6l0,0.1L94.5,62.6L94.5,62.6z M85.7,81.1l2.4-7.3L85.7,81.1L85.7,81.1z"/>
		<path d="M197.6,78.6c-0.2-0.8-0.4-1.6-0.6-2.4c-1.3-5.2-3-10.3-5-15.2c-5-11.9-12.2-22.6-21.4-31.7c-9.2-9.2-19.9-16.4-31.7-21.4
			c-12.3-5.2-25.4-7.8-38.9-7.8c-13.5,0-26.6,2.6-38.9,7.8c-11.9,5-22.6,12.2-31.7,21.4C20.2,38.4,13,49,8,60.9
			c-2,4.8-3.7,9.7-4.9,14.7c-0.2,1-0.5,2-0.7,3c-1.5,6.9-2.2,14-2.2,21.2c0,13.5,2.6,26.6,7.8,38.9c5,11.9,12.2,22.6,21.4,31.7
			c9.2,9.2,19.9,16.4,31.7,21.4c12.3,5.2,25.4,7.8,38.9,7.8c13.5,0,26.6-2.6,38.9-7.8c11.9-5,22.6-12.2,31.7-21.4
			c9.2-9.2,16.4-19.8,21.4-31.7c5.2-12.3,7.8-25.4,7.8-38.9C199.9,92.6,199.1,85.5,197.6,78.6z M158,26.4l-5.5,7.2l2.9-9.2
			C156.3,25.1,157.2,25.8,158,26.4z M146.3,20.8c0.3,0.2,0.6,0.4,0.8,0.6c0.2,0.2,0.2,0.4,0.3,0.7c0,0.2,0,0.5-0.2,0.8
			c-0.1,0.3-0.3,0.6-0.5,0.9c-0.1,0.1-0.2,0.3-0.2,0.4c-0.1,0.2-0.2,0.4-0.4,0.5c-0.2,0.2-0.4,0.4-0.6,0.5c-0.2,0.1-0.4,0.2-0.7,0.1
			c-0.3,0-0.5-0.1-0.9-0.3l-1.1-0.6l2.5-4.2L146.3,20.8z M127.7,10.5c0.9,0.3,1.7,0.5,2.5,0.8l-2,6.2l-2.5-0.8L127.7,10.5z
			 M108.9,8.7l1.1,0.1c0.4,0,0.7,0.1,1,0.3c0.2,0.1,0.4,0.3,0.5,0.5c0.1,0.2,0.2,0.5,0.2,0.8c0,0.3,0,0.7-0.1,1.1
			c0,0.2,0,0.3-0.1,0.4c0,0.2-0.1,0.4-0.1,0.6c-0.1,0.3-0.2,0.5-0.3,0.7c-0.1,0.2-0.3,0.3-0.6,0.4c-0.2,0.1-0.6,0.1-0.9,0.1
			l-1.2-0.1L108.9,8.7z M98.4,8.6c0.3-0.3,0.6-0.4,1-0.4h0c0.4,0,0.7,0.1,1,0.4c0.3,0.2,0.4,0.6,0.5,1.2l0.1,8.4
			c0,0.5-0.1,0.9-0.4,1.2c-0.3,0.3-0.6,0.4-1,0.4c-0.4,0-0.7-0.1-1-0.4c-0.3-0.2-0.4-0.6-0.5-1.2L98,9.8C98,9.3,98.1,8.9,98.4,8.6z
			 M86.8,7.1c1.1-0.2,2.2-0.3,3.4-0.4l0.1,0l1.2,9.5l-0.2,0L86.8,7.1L86.8,7.1z M9.3,77c0.1-0.5,0.2-0.9,0.4-1.4
			c1.1-4.1,2.5-8.3,4.2-12.2c4.7-11.1,11.5-21.1,20-29.7c8.6-8.6,18.6-15.3,29.7-20c5.9-2.5,12-4.4,18.2-5.6
			c0.9-0.2,1.8-0.3,2.7-0.5l0,0c0,0,0,0,0,0l1.9,15.5l2.4-0.3l-1.1-9.3l4.5,8.9l2.2-0.3L92.6,6.6c1.6-0.1,3.3-0.2,4.9-0.3
			c-0.3,0.1-0.5,0.3-0.8,0.5c-0.4,0.3-0.7,0.8-0.9,1.3c-0.2,0.5-0.3,1.1-0.3,1.7l0.1,8.4c0,0.7,0.1,1.2,0.4,1.7
			c0.2,0.5,0.5,0.9,0.9,1.2c0.4,0.3,0.8,0.6,1.3,0.7c0.5,0.2,0.9,0.2,1.4,0.2c0.5,0,0.9-0.1,1.4-0.3c0.5-0.2,0.9-0.4,1.2-0.8
			c0.4-0.3,0.7-0.8,0.9-1.2c0.2-0.5,0.3-1.1,0.3-1.7l-0.1-8.4c0-0.6-0.1-1.2-0.4-1.7c-0.2-0.5-0.5-0.9-0.9-1.2
			c-0.2-0.2-0.5-0.3-0.7-0.5c1.8,0,3.6,0.1,5.4,0.2L105,22.1l2.4,0.3l0.8-6.7l1.2,0.1l1.4,7l2.5,0.3l-1.6-7.5c0.4-0.2,0.8-0.4,1-0.6
			c0.3-0.2,0.5-0.5,0.6-0.8c0.3-0.5,0.5-1.2,0.6-1.9c0-0.1,0-0.3,0.1-0.5c0.3-2.3-0.3-3.8-1.7-4.6c1.2,0.2,2.3,0.3,3.5,0.5l-0.4,1.8
			L118,10l-2.9,13.5l2.4,0.5l2.9-13.5l2.6,0.6l0.4-1.8c0.6,0.2,1.3,0.3,2,0.5l-4.8,14.8l0,0.1l2.3,0.7l2.2-6.7l2.5,0.8l-2.2,6.7
			l2.3,0.7l4.8-14.9c1,0.4,2.1,0.8,3.1,1.2l-6.4,14.2l0,0.1l6.3,2.9l1-2.2l-4.1-1.9l1.9-4.1l3.6,1.6l0.9-2.1l-3.6-1.6L137,16
			l4.1,1.9l0.8-1.7c0.8,0.4,1.6,0.8,2.3,1.2l-8,13.5l2.1,1.2l3.5-5.8l1.1,0.6l-1.6,6.9l2.2,1.3l1.6-7.5c0.4,0,0.8,0,1.2-0.2
			c0.3-0.1,0.6-0.3,0.9-0.4c0.5-0.4,0.9-0.8,1.4-1.5c0.1-0.1,0.2-0.2,0.2-0.4c1.2-2,1.3-3.6,0.3-4.9c1.5,0.9,3,1.9,4.4,2.9
			l-9.5,12.4l1.9,1.5l5.7-7.4l-3,9.5l0,0l1.8,1.4l9.5-12.4c2.2,1.8,4.3,3.7,6.2,5.7c0.2,0.2,0.4,0.4,0.6,0.6c-0.5-0.1-1-0.2-1.6,0
			c-0.2,0-0.4,0.1-0.6,0.2c-0.2,0.1-0.4,0.2-0.6,0.3c-0.2,0.1-0.4,0.3-0.7,0.5c-0.2,0.2-0.6,0.5-1,0.9c-0.1,0.1-0.2,0.2-0.3,0.3
			l-0.1,0.1c-0.3,0.3-0.6,0.5-0.8,0.8c-0.3,0.3-0.5,0.5-0.7,0.8c-0.2,0.2-0.3,0.4-0.4,0.6l0,0c-0.1,0.2-0.1,0.3-0.2,0.5
			c-0.1,0.4-0.1,0.7,0,1.1c0.1,0.4,0.3,0.7,0.6,1c0.2,0.2,0.3,0.3,0.5,0.4c0.1,0.1,0.2,0.1,0.3,0.1l-6.6,2.7l1.9,2l7.9-3.3
			c0,0,0,0,0,0c0.2-0.1,0.4-0.2,0.5-0.3c0.2-0.1,0.4-0.2,0.6-0.3c0.2-0.1,0.4-0.3,0.7-0.5c0.1-0.1,0.3-0.3,0.6-0.5
			c0.1-0.1,0.2-0.2,0.3-0.3c0.4-0.3,0.7-0.6,0.9-0.9c0.2-0.2,0.4-0.5,0.6-0.6c0.1-0.2,0.3-0.4,0.3-0.5c0.1-0.2,0.1-0.3,0.2-0.6
			c0.1-0.5,0.1-1,0-1.6c1.7,1.9,3.3,3.8,4.9,5.8l-4.9,1.5l-3,0.9c-0.2,0.1-0.4,0.1-0.6,0.2c-0.2,0.1-0.4,0.2-0.6,0.3
			c-0.2,0.1-0.4,0.3-0.7,0.5c-0.3,0.2-0.6,0.4-1,0.7c-0.4,0.3-0.8,0.6-1,0.8c-0.3,0.2-0.5,0.4-0.6,0.6c-0.2,0.2-0.3,0.3-0.4,0.5
			c-0.1,0.2-0.2,0.3-0.2,0.5c-0.2,0.5-0.3,1.1-0.2,1.7c0.1,0.6,0.3,1.1,0.7,1.6c0.4,0.5,0.8,0.9,1.4,1.1c0.5,0.2,1.1,0.3,1.7,0.3
			c0.2,0,0.4-0.1,0.6-0.1c0.2,0,0.4-0.1,0.6-0.2c0.2-0.1,0.5-0.3,0.7-0.5c0.3-0.2,0.6-0.5,1-0.8c0.2-0.1,0.3-0.3,0.5-0.4l0,0
			l1.4-1.2l0,0c0,0,0.1,0,0.1-0.1c0.2-0.2,0.3-0.4,0.4-0.5c0-0.1,0.1-0.1,0.1-0.2c0.1-0.1,0.1-0.2,0.2-0.3c0.1-0.3,0.2-0.7,0.1-1.1
			c-0.1-0.4-0.2-0.8-0.5-1.1c-0.2-0.2-0.3-0.4-0.4-0.5c-0.1-0.1-0.2-0.1-0.2-0.2l6.5-1.9c4.2,5.7,7.7,12,10.5,18.6
			c1.8,4.1,3.2,8.4,4.3,12.8c0.1,0.5,0.2,0.9,0.3,1.4c0.1,0.5,0.2,0.9,0.3,1.3h-42.5l-10.5-25L121.7,137l-24.6-85l-0.8-2.9l-2.7-9.4
			l-24.4,74.8L54.4,78.3H9C9.1,77.9,9.2,77.4,9.3,77z M166.8,37.7c0,0.3-0.1,0.5-0.3,0.8l-2.1,2c-0.2,0.2-0.5,0.3-0.8,0.3
			c-0.3,0-0.5-0.1-0.7-0.3c-0.2-0.2-0.3-0.5-0.3-0.7c0-0.3,0.1-0.5,0.3-0.8l2.1-2c0.2-0.2,0.5-0.3,0.7-0.3c0,0,0,0,0.1,0
			c0.3,0,0.5,0.1,0.7,0.3C166.7,37.1,166.8,37.4,166.8,37.7z M167.7,48.6c0,0,0,0.1,0,0.1c0,0.3-0.2,0.5-0.4,0.7l-2.3,1.8
			c-0.3,0.2-0.5,0.3-0.8,0.2c-0.3,0-0.5-0.2-0.7-0.4c-0.2-0.2-0.2-0.5-0.2-0.8c0-0.3,0.2-0.5,0.4-0.7l2.3-1.8
			c0.2-0.2,0.4-0.2,0.6-0.2c0.1,0,0.1,0,0.2,0c0.3,0,0.5,0.2,0.7,0.4C167.7,48.1,167.7,48.3,167.7,48.6z M191.7,118.4
			c-1.2,6.1-3.1,12-5.5,17.8c-4.7,11.1-11.5,21.1-20,29.7c-8.6,8.6-18.6,15.3-29.7,20c-11.5,4.9-23.8,7.3-36.4,7.3
			s-24.9-2.5-36.4-7.3c-11.1-4.7-21.1-11.5-29.7-20c-8.6-8.6-15.3-18.6-20-29.7C9,124.7,6.5,112.4,6.5,99.8c0-4.5,0.3-9,0.9-13.4
			C7.5,86,7.6,85.5,7.7,85c0.1-0.5,0.1-0.9,0.2-1.3h42.9l19,46.5l16-49.1h0l2.4-7.3l2.2-6.6v0l0.4-1.3l2.5-7.8l1.3,4.5l0.1,0l0,0.1
			l28.1,96.9l0.1,0L140,72.3l5,12h47.2c0.1,0.4,0.1,0.9,0.2,1.3c0.1,0.4,0.1,0.9,0.2,1.4c0.6,4.2,0.9,8.5,0.9,12.8
			C193.5,106.1,192.9,112.3,191.7,118.4z"/>
		<path d="M82.4,12.8c-5.8,1.2-11.4,2.9-16.9,5.2c-10.6,4.5-20,10.9-28.2,19c-8.1,8.1-14.5,17.6-19,28.2c-1.4,3.4-2.6,6.8-3.6,10.3
			h2.9c0.9-3.1,2-6.2,3.3-9.3C25.2,56.1,31.4,46.9,39.2,39c7.9-7.9,17.1-14.1,27.3-18.4c5.2-2.2,10.6-3.9,16.1-5L82.4,12.8z
			 M24.6,71.7v3.9H26v-3.9H24.6z M29.3,73.1v2.5h1.4v-2.5H29.3z M34.1,71.7v3.9h1.4v-3.9H34.1z M38.8,73.1v2.5h1.4v-2.5H38.8z
			 M43.5,71.7v3.9h1.4v-3.9H43.5z M48.3,73.1v2.5h1.4v-2.5H48.3z M53,71.7v3.9h1.4v-3.9H53z M149.9,73.6v2.5h1.4v-2.5H149.9z
			 M154.6,72.2v3.9h1.4v-3.9H154.6z M159.4,73.6v2.5h1.4v-2.5H159.4z M164.1,72.2v3.9h1.4v-3.9H164.1z M168.8,73.6v2.5h1.4v-2.5
			H168.8z M173.6,72.2v3.9h1.4v-3.9H173.6z M178.3,73.6v2.5h1.4v-2.5H178.3z M181.7,65.3c-2.2-5.2-4.8-10-7.9-14.7l-2.1,1.8
			c2.9,4.4,5.4,9,7.5,13.9c1.4,3.2,2.5,6.5,3.5,9.8h2.9C184.5,72.5,183.2,68.8,181.7,65.3z"/>
	</g>
</g>
<g id="Ellipse_1_copy_14_">
	<g>
		<g>
			<path d="M187.8,87H185c0.6,4.2,0.9,8.5,0.9,12.8c0,11.6-2.3,22.9-6.8,33.4c-4.3,10.2-10.5,19.4-18.4,27.3
				c-7.9,7.9-17.1,14.1-27.3,18.4c-10.6,4.5-21.8,6.8-33.4,6.8c-11.6,0-22.9-2.3-33.4-6.8c-10.2-4.3-19.4-10.5-27.3-18.4
				c-7.9-7.9-14.1-17.1-18.4-27.3c-4.5-10.6-6.8-21.8-6.8-33.4c0-4.5,0.3-9,1-13.4h-2.8c-0.7,4.4-1,8.9-1,13.4c0,12,2.3,23.6,7,34.5
				c4.5,10.6,10.9,20,19,28.2c8.1,8.1,17.6,14.5,28.2,19c10.9,4.6,22.6,7,34.5,7c12,0,23.6-2.3,34.5-7c10.6-4.5,20-10.9,28.2-19
				c8.1-8.1,14.5-17.6,19-28.2c4.6-10.9,7-22.6,7-34.5C188.7,95.5,188.4,91.2,187.8,87z M181.7,65.3c-2.2-5.2-4.8-10-7.9-14.7
				l-2.1,1.8c2.9,4.4,5.4,9,7.5,13.9c1.4,3.2,2.5,6.5,3.5,9.8h2.9C184.5,72.5,183.2,68.8,181.7,65.3z M82.4,12.8
				c-5.8,1.2-11.4,2.9-16.9,5.2c-10.6,4.5-20,10.9-28.2,19c-8.1,8.1-14.5,17.6-19,28.2c-1.4,3.4-2.6,6.8-3.6,10.3h2.9
				c0.9-3.1,2-6.2,3.3-9.3C25.2,56.1,31.4,46.9,39.2,39c7.9-7.9,17.1-14.1,27.3-18.4c5.2-2.2,10.6-3.9,16.1-5L82.4,12.8z"/>
			<path d="M168,51.9c0.3-0.2,0.5-0.4,0.7-0.6c0.3-0.2,0.5-0.4,0.7-0.6L168,51.9z"/>
		</g>
	</g>
</g>
<polygon points="97.1,52.1 96.3,49.1 96.3,49.1 "/>
<g>
	<path d="M183.6,98.2l0,2.5l-0.8,0l0-1.7l-1.7,0l0,1.5l-0.8,0l0-1.5l-1.7,0l0,1.7l-0.8,0l0-2.5L183.6,98.2z"/>
	<path d="M181.8,104.1l0-0.8l0.2,0c0.2,0,0.4,0,0.5-0.1c0.1-0.1,0.2-0.2,0.2-0.5c0-0.1,0-0.2-0.1-0.3c0-0.1-0.1-0.1-0.2-0.2
		c-0.1,0-0.1-0.1-0.2-0.1c-0.1,0-0.2,0-0.3,0c-0.1,0-0.2,0-0.3,0c-0.1,0-0.2,0-0.2,0.1s-0.1,0.1-0.2,0.1s-0.1,0.1-0.1,0.3l-0.3,0.6
		c-0.1,0.2-0.2,0.3-0.3,0.4c-0.1,0.1-0.2,0.2-0.4,0.3c-0.1,0.1-0.3,0.1-0.5,0.1c-0.2,0-0.4,0-0.6,0c-0.2,0-0.5,0-0.7-0.1
		c-0.2-0.1-0.4-0.1-0.5-0.3c-0.1-0.1-0.3-0.3-0.3-0.5c-0.1-0.2-0.1-0.4-0.1-0.7c0-0.2,0-0.4,0.1-0.6c0.1-0.2,0.2-0.3,0.3-0.4
		s0.3-0.2,0.5-0.3c0.2-0.1,0.4-0.1,0.6-0.1l0.3,0l0,0.8l-0.3,0c-0.2,0-0.3,0-0.4,0.1c-0.1,0.1-0.2,0.2-0.2,0.5c0,0.1,0,0.3,0,0.3
		c0,0.1,0.1,0.1,0.2,0.2c0.1,0,0.2,0.1,0.3,0.1c0.1,0,0.2,0,0.4,0c0.2,0,0.3,0,0.4,0c0.1,0,0.2,0,0.2-0.1c0.1,0,0.1-0.1,0.2-0.1
		c0-0.1,0.1-0.1,0.1-0.2l0.3-0.6c0.2-0.4,0.4-0.6,0.6-0.7c0.2-0.1,0.6-0.2,0.9-0.2c0.2,0,0.4,0,0.6,0.1s0.4,0.2,0.5,0.3
		c0.1,0.1,0.2,0.3,0.3,0.5c0.1,0.2,0.1,0.4,0.1,0.6c0,0.2-0.1,0.4-0.1,0.6c-0.1,0.2-0.2,0.3-0.3,0.4c-0.1,0.1-0.3,0.2-0.4,0.3
		c-0.2,0.1-0.3,0.1-0.5,0.1L181.8,104.1z"/>
	<path d="M182.6,105.5l0.1-1l0.8,0.1l-0.2,2.8l-0.8-0.1l0.1-1l-5.1-0.4l0.1-0.8L182.6,105.5z"/>
	<path d="M178.2,106.5l-0.1,0.8l-0.8-0.1l0.1-0.8L178.2,106.5z"/>
	<path d="M177.8,109.5l2.6,1.9c0.1,0.1,0.2,0.2,0.4,0.2c0.1,0,0.2,0,0.4,0.1c0.1,0,0.1,0,0.2,0c0.1,0,0.2,0,0.2,0
		c0.1,0,0.1,0,0.2-0.1c0,0,0.1-0.1,0.1-0.2c0-0.1,0-0.2-0.1-0.3c-0.1-0.1-0.2-0.1-0.3-0.2l-0.5-0.1l0.1-0.8l0.5,0.1
		c0.2,0,0.3,0.1,0.5,0.2c0.1,0.1,0.3,0.2,0.4,0.3s0.2,0.3,0.2,0.4c0,0.2,0.1,0.3,0,0.5c0,0.2-0.1,0.4-0.2,0.5
		c-0.1,0.1-0.2,0.3-0.4,0.3c-0.2,0.1-0.3,0.1-0.5,0.2c-0.2,0-0.4,0-0.6,0c-0.1,0-0.3,0-0.4-0.1c-0.1,0-0.2,0-0.3-0.1
		c-0.1,0-0.2-0.1-0.3-0.1c-0.1-0.1-0.2-0.1-0.3-0.2l-2.2-1.6l-0.2,1.5l-0.8-0.1l0.4-2.5L177.8,109.5z"/>
	<path d="M181.2,113.3c0.2,0,0.4,0.1,0.5,0.2c0.1,0.1,0.3,0.2,0.3,0.3c0.1,0.1,0.1,0.3,0.2,0.4c0,0.2,0,0.3,0,0.5
		c0,0.2-0.1,0.3-0.2,0.5c-0.1,0.1-0.2,0.3-0.3,0.4s-0.3,0.2-0.4,0.2c-0.2,0-0.3,0-0.5,0l-3.4-0.6c-0.2,0-0.4-0.1-0.5-0.2
		s-0.3-0.2-0.3-0.3c-0.1-0.1-0.1-0.3-0.2-0.4c0-0.2,0-0.3,0-0.5c0-0.2,0.1-0.3,0.2-0.5c0.1-0.1,0.2-0.3,0.3-0.4
		c0.1-0.1,0.3-0.2,0.4-0.2c0.2,0,0.3,0,0.5,0L181.2,113.3z M177.7,113.5c-0.1,0-0.2,0-0.3,0.1s-0.2,0.2-0.2,0.3s0,0.2,0.1,0.3
		s0.2,0.1,0.3,0.2l3.4,0.6c0.1,0,0.2,0,0.3-0.1c0.1-0.1,0.2-0.2,0.2-0.3s0-0.2-0.1-0.3s-0.2-0.1-0.3-0.2L177.7,113.5z"/>
	<path d="M180.8,117.5l-0.4-1l0.9,0.2l0.4,1l-0.2,0.8l-5.8-1.3l0.2-0.8L180.8,117.5z"/>
	<path d="M179.7,122.1l0.4-1.6l-1.5-0.4c0.1,0.1,0.1,0.2,0.1,0.3c0,0.1,0,0.3,0,0.4c-0.1,0.3-0.2,0.5-0.4,0.6s-0.5,0.2-0.8,0.1
		l-1.5-0.4c-0.2-0.1-0.4-0.1-0.5-0.2s-0.2-0.2-0.3-0.4c-0.1-0.1-0.1-0.3-0.1-0.5c0-0.2,0-0.3,0-0.5c0-0.2,0.1-0.3,0.2-0.4
		c0.1-0.1,0.2-0.2,0.3-0.3c0.1-0.1,0.3-0.1,0.5-0.2c0.2,0,0.3,0,0.5,0l0.2,0.1l-0.2,0.8l-0.2-0.1c-0.1,0-0.3,0-0.4,0
		s-0.2,0.1-0.2,0.3c0,0.1,0,0.2,0,0.3c0.1,0.1,0.2,0.1,0.3,0.2l1.3,0.4c0.1,0,0.2,0,0.3,0c0.1-0.1,0.2-0.1,0.2-0.2
		c0-0.1,0-0.1,0-0.2s0-0.1-0.1-0.1c0,0-0.1-0.1-0.1-0.1c0,0-0.1-0.1-0.1-0.1l0.2-0.7l3.1,0.8l-0.6,2.3L179.7,122.1z"/>
</g>
<polygon points="90.7,65.9 90.3,67.2 90.7,65.9 "/>
<polygon class="st1" points="88.1,73.8 85.7,81.1 85.7,81.1 "/>
<polygon class="st1" points="94.6,62.6 94.6,62.7 94.5,62.6 "/>
<g>
	<rect x="24.6" y="71.7" width="1.4" height="3.9"/>
</g>
<g>
	<rect x="29.3" y="73.1" width="1.4" height="2.5"/>
</g>
<g>
	<rect x="34.1" y="71.7" width="1.4" height="3.9"/>
</g>
<g>
	<rect x="38.8" y="73.1" width="1.4" height="2.5"/>
</g>
<g>
	<rect x="43.5" y="71.7" width="1.4" height="3.9"/>
</g>
<g>
	<rect x="48.3" y="73.1" width="1.4" height="2.5"/>
</g>
<g>
	<rect x="53" y="71.7" width="1.4" height="3.9"/>
</g>
<g>
	<rect x="149.9" y="73.6" width="1.4" height="2.5"/>
</g>
<g>
	<rect x="154.6" y="72.2" width="1.4" height="3.9"/>
</g>
<g>
	<rect x="159.4" y="73.6" width="1.4" height="2.5"/>
</g>
<g>
	<rect x="164.1" y="72.2" width="1.4" height="3.9"/>
</g>
<g>
	<rect x="168.8" y="73.6" width="1.4" height="2.5"/>
</g>
<g>
	<rect x="173.6" y="72.2" width="1.4" height="3.9"/>
</g>
<g>
	<rect x="178.3" y="73.6" width="1.4" height="2.5"/>
</g>
<g>
	<rect x="48.3" y="86.4" width="1.4" height="2.5"/>
</g>
<g>
	<rect x="43.5" y="86.4" width="1.4" height="3.9"/>
</g>
<g>
	<rect x="38.8" y="86.4" width="1.4" height="2.5"/>
</g>
<g>
	<rect x="34.1" y="86.4" width="1.4" height="3.9"/>
</g>
<g>
	<rect x="29.3" y="86.4" width="1.4" height="2.5"/>
</g>
<g>
	<rect x="24.6" y="86.4" width="1.4" height="3.9"/>
</g>
<g>
	<rect x="19.9" y="86.4" width="1.4" height="2.5"/>
</g>
<g>
	<rect x="178.3" y="87.1" width="1.4" height="2.5"/>
</g>
<g>
	<rect x="173.6" y="87.1" width="1.4" height="3.9"/>
</g>
<g>
	<rect x="168.8" y="87.1" width="1.4" height="2.5"/>
</g>
<g>
	<rect x="164.1" y="87.1" width="1.4" height="3.9"/>
</g>
<g>
	<rect x="159.4" y="87.1" width="1.4" height="2.5"/>
</g>
<g>
	<rect x="154.6" y="87.1" width="1.4" height="3.9"/>
</g>
<g>
	<rect x="149.9" y="87.1" width="1.4" height="2.5"/>
</g>
<g>
	<rect x="145.1" y="87.1" width="1.4" height="3.9"/>
</g>
<rect x="19.9" y="73.1" width="1.4" height="2.5"/>
<path d="M90.4,40l-21.7,66.2l-1.6-4l12.1-36.8h-9l2.8-2.8h7.1l1.6-5H65.9l2.8-2.8h13.9l1.6-5H61.4l2.8-2.8h21l1.4-4.3H39.5
	c0.6-0.6,1.1-1.2,1.7-1.7c0.3-0.3,0.7-0.7,1.1-1H90.4z"/>
<polygon points="135.3,53.9 121,124.4 119.4,118.6 127.4,79.2 116.8,79.2 119.6,76.4 127.9,76.4 128.9,71.4 112.6,71.4 115.3,68.6 
	129.5,68.6 130.5,63.6 108,63.6 110.8,60.8 131.1,60.8 131.9,56.6 101.3,56.6 100.5,53.9 "/>
<polygon points="119.8,159.7 67.7,159.7 65,156.9 116.1,156.9 114.9,152.6 94,152.6 91.2,149.8 114.1,149.8 112.6,144.8 98.4,144.8 
	95.7,142 111.8,142 110.4,137 102.6,137 99.8,134.2 109.6,134.2 91.6,71.8 93.1,67.1 "/>
</svg>
