<?xml version="1.0" encoding="utf-8"?>
<!-- Generator: Adobe Illustrator 21.0.0, SVG Export Plug-In . SVG Version: 6.00 Build 0)  -->
<svg version="1.1" id="Layer_1" xmlns="http://www.w3.org/2000/svg" xmlns:xlink="http://www.w3.org/1999/xlink" x="0px" y="0px"
	 viewBox="0 0 758 766" style="enable-background:new 0 0 758 766;" xml:space="preserve">
<g>
	<path d="M758,170.5c0,14.5,0,29,0,43.6c-0.5,1-1.3,1.9-1.5,2.9c-3.4,16.7-5.3,33.8-10.2,50c-15,50.2-40.4,95.6-68.5,139.5
		c-28.5,44.7-59.3,87.8-93.5,128.4c-21.7,25.8-43.2,51.8-66.5,76.2c-17,17.8-35.9,33.9-55,49.4c-25.1,20.4-52.5,37.4-84.1,46.6
		c-6.2,1.8-12.5,3.4-18.7,5.1c-11.1,0-22.3,0-33.4,0c-9.7-4.6-20.1-8.1-28.8-14.1c-16.6-11.6-29.2-27.3-39.5-44.9
		c-14.2-24.2-26.1-49.4-33.3-76.7c-9.2-34.7-18.9-69.4-28.3-104.1c-9.9-36.5-19.4-73.2-29.9-109.5c-8.8-30.5-17.9-61-34.4-88.5
		c-6.5-10.8-13.2-21.5-24.9-27.7c-6.7-3.5-13.3-4.4-20.1-0.3c-8.7,5.3-17.6,10.4-26.1,15.9c-8.7,5.6-17.1,11.5-25.6,17.3
		c-3-4-5.5-7.5-8.2-10.8C18.4,257.3,9.2,245.9,0,234.4c0-1,0-1.9,0-2.9c18-15.8,36.1-31.4,53.9-47.3c19.4-17.2,38.1-35.1,57.9-51.8
		c17.2-14.6,35-28.7,53.4-41.8c22.2-15.8,45.9-28.1,74.6-26.1c20.6,1.5,38.6,9,52.7,23.7c12.4,12.9,20.8,28.7,26.9,45.7
		c9.6,26.8,13.2,54.8,17.5,82.7c5.7,36.8,11.8,73.6,18.9,110.1c7.2,37.2,15.2,74.3,29.1,109.7c4.9,12.3,10.4,24.7,21.1,33.7
		c6.9,5.8,13,7,21,3.1c13.9-6.7,23.5-18.3,32.4-30c24.6-32.4,46-66.9,63.7-103.6c11.5-23.8,19.2-48.2,17.1-75
		c-1.4-17.7-10.7-33.8-29.1-39.2c-17.8-5.2-35.4-3.3-52.9,1.3c-8.3,2.2-16.4,5.1-25.9,8c3.4-9.8,6.2-18.3,9.3-26.6
		c11.6-31.4,26.6-61.2,48.4-86.6C517.3,90,550.7,68,592.4,60.2c7.3-1.4,14.6-2.9,21.9-4.4c16,0,31.9,0,47.9,0
		c0.7,0.5,1.4,1.4,2.1,1.4c25.9,3,48.3,12.6,65.2,33.3c14.9,18.2,22.1,39.4,25.5,62.2C755.9,158.7,757,164.6,758,170.5z"/>
</g>
</svg>
